<svg width="89" height="35" viewBox="0 0 89 35" fill="none" xmlns="http://www.w3.org/2000/svg">
<g clip-path="url(#clip0_9_147)">
<path fill-rule="evenodd" clip-rule="evenodd" d="M15.2909 7.10667C15.2909 6.40081 15.1247 5.70465 14.8053 5.0733C14.5293 4.52757 14.3672 3.93251 14.3287 3.32355L14.2364 1.86363L14.1441 3.3235C14.1055 3.93247 13.9435 4.52755 13.6674 5.07328C13.3481 5.70464 13.1818 6.40082 13.1818 7.10669V27.8933C13.1818 28.5991 13.3481 29.2954 13.6674 29.9267C13.9435 30.4724 14.1055 31.0675 14.1441 31.6765L14.2364 33.1364L14.3287 31.6764C14.3672 31.0675 14.5293 30.4724 14.8053 29.9267C15.1247 29.2954 15.2909 28.5992 15.2909 27.8933V7.10667ZM9.53256 7.15815C9.85196 7.78949 10.0182 8.4857 10.0182 9.19155V25.8084C10.0182 26.5144 9.85196 27.2105 9.53256 27.8419C9.25654 28.3876 9.09447 28.9827 9.05591 29.5916L8.96364 31.0515L8.87136 29.5916C8.83281 28.9827 8.67074 28.3876 8.39471 27.8419C8.07531 27.2105 7.90909 26.5144 7.90909 25.8084V9.19155C7.90909 8.4857 8.07531 7.78949 8.39471 7.15815C8.67074 6.61241 8.83281 6.01735 8.87136 5.40838L8.96364 3.94849L9.05591 5.40838C9.09447 6.01735 9.25654 6.61241 9.53256 7.15815ZM7.38182 11.2764C7.38182 10.5705 7.2156 9.87434 6.8962 9.24302C6.62017 8.69724 6.45808 8.10218 6.41958 7.49322L6.32727 6.03332L6.23497 7.49322C6.19646 8.10218 6.03437 8.69724 5.75833 9.24302C5.43898 9.87434 5.27273 10.5705 5.27273 11.2764V23.7236C5.27273 24.4294 5.43898 25.1257 5.75833 25.757C6.03437 26.3027 6.19646 26.8978 6.23497 27.5067L6.32727 28.9667L6.41958 27.5067C6.45808 26.8978 6.62017 26.3027 6.8962 25.757C7.2156 25.1257 7.38182 24.4294 7.38182 23.7236V11.2764ZM4.25986 13.4127C4.5792 14.044 4.74545 14.7402 4.74545 15.4461V19.5539C4.74545 20.2597 4.5792 20.956 4.25986 21.5873C3.98382 22.133 3.82172 22.7281 3.78321 23.3371L3.69091 24.797L3.5986 23.3371C3.5601 22.7281 3.398 22.133 3.12196 21.5873C2.80262 20.956 2.63636 20.2597 2.63636 19.5539V15.4461C2.63636 14.7402 2.80262 14.044 3.12196 13.4127C3.398 12.8669 3.5601 12.2718 3.5986 11.6629L3.69091 10.203L3.78321 11.6629C3.82172 12.2718 3.98382 12.8669 4.25986 13.4127ZM2.10899 17.5L2.10909 17.5309V17.469L2.10899 17.5ZM0 17.5309L0.000106392 17.5C0.00488996 18.1953 0.17092 18.8804 0.485599 19.5024C0.761639 20.0482 0.923736 20.6432 0.96224 21.2522L1.05455 22.7121L1.14685 21.2522C1.18536 20.6432 1.34745 20.0482 1.62349 19.5024C1.93817 18.8804 2.1042 18.1953 2.10899 17.5C2.1042 16.8047 1.93817 16.1196 1.62349 15.4976C1.34745 14.9518 1.18536 14.3568 1.14685 13.7478L1.05455 12.2879L0.96224 13.7478C0.923736 14.3568 0.761639 14.9518 0.485599 15.4976C0.17092 16.1196 0.00488997 16.8047 0.000106392 17.5L0 17.469V17.5309ZM12.1689 5.0733C12.4883 5.70464 12.6545 6.40082 12.6545 7.10668V27.8933C12.6545 28.5992 12.4883 29.2954 12.1689 29.9267C11.8929 30.4724 11.7308 31.0675 11.6923 31.6764L11.6 33.1364L11.5077 31.6764C11.4692 31.0675 11.3071 30.4724 11.0311 29.9267C10.7117 29.2954 10.5455 28.5992 10.5455 27.8933V7.10668C10.5455 6.40082 10.7117 5.70464 11.0311 5.0733C11.3071 4.52756 11.4692 3.93249 11.5077 3.32353L11.6 1.86363L11.6923 3.32353C11.7308 3.93249 11.8929 4.52756 12.1689 5.0733ZM17.4417 5.0733C17.7611 5.70464 17.9273 6.40082 17.9273 7.10668V27.8933C17.9273 28.5992 17.7611 29.2954 17.4417 29.9267C17.1656 30.4724 17.0036 31.0675 16.965 31.6764L16.8727 33.1364L16.7805 31.6764C16.7419 31.0675 16.5798 30.4724 16.3038 29.9267C15.9844 29.2954 15.8182 28.5992 15.8182 27.8933V7.10668C15.8182 6.40082 15.9844 5.70464 16.3038 5.0733C16.5798 4.52756 16.7419 3.93249 16.7805 3.32353L16.8727 1.86363L16.965 3.32353C17.0036 3.93249 17.1656 4.52756 17.4417 5.0733ZM20.5636 9.19155C20.5636 8.4857 20.3974 7.78949 20.078 7.15815C19.802 6.61241 19.6399 6.01735 19.6014 5.40838L19.5091 3.94849L19.4168 5.40838C19.3783 6.01735 19.2162 6.61241 18.9402 7.15815C18.6208 7.78949 18.4545 8.4857 18.4545 9.19155V25.8084C18.4545 26.5144 18.6208 27.2105 18.9402 27.8419C19.2162 28.3876 19.3783 28.9827 19.4168 29.5916L19.5091 31.0515L19.6014 29.5916C19.6399 28.9827 19.802 28.3876 20.078 27.8419C20.3974 27.2105 20.5636 26.5144 20.5636 25.8084V9.19155ZM22.7144 9.24302C23.0338 9.87434 23.2 10.5705 23.2 11.2764V23.7236C23.2 24.4294 23.0338 25.1257 22.7144 25.757C22.4384 26.3027 22.2763 26.8978 22.2377 27.5067L22.1455 28.9667L22.0532 27.5067C22.0146 26.8978 21.8526 26.3027 21.5765 25.757C21.2572 25.1257 21.0909 24.4294 21.0909 23.7236V11.2764C21.0909 10.5705 21.2572 9.87434 21.5765 9.24302C21.8526 8.69724 22.0146 8.10218 22.0532 7.49322L22.1455 6.03332L22.2377 7.49322C22.2763 8.10218 22.4384 8.69724 22.7144 9.24302ZM25.8364 15.4461C25.8364 14.7402 25.6701 14.044 25.3507 13.4127C25.0747 12.8669 24.9126 12.2718 24.8741 11.6629L24.7818 10.203L24.6895 11.6629C24.651 12.2718 24.4889 12.8669 24.2129 13.4127C23.8936 14.044 23.7273 14.7402 23.7273 15.4461V19.5539C23.7273 20.2597 23.8936 20.956 24.2129 21.5873C24.4889 22.133 24.651 22.7281 24.6895 23.3371L24.7818 24.797L24.8741 23.3371C24.9126 22.7281 25.0747 22.133 25.3507 21.5873C25.6701 20.956 25.8364 20.2597 25.8364 19.5539V15.4461ZM28.4726 17.5C28.4727 17.5103 28.4727 17.5206 28.4727 17.5309V17.469C28.4727 17.4794 28.4727 17.4897 28.4726 17.5ZM26.3638 17.5C26.3685 18.1953 26.5345 18.8804 26.8493 19.5024C27.1253 20.0482 27.2874 20.6432 27.3259 21.2522L27.4182 22.7121L27.5105 21.2522C27.549 20.6432 27.7111 20.0482 27.9871 19.5024C28.3018 18.8804 28.4678 18.1953 28.4726 17.5C28.4678 16.8047 28.3018 16.1196 27.9871 15.4976C27.7111 14.9518 27.549 14.3568 27.5105 13.7478L27.4182 12.2879L27.3259 13.7478C27.2874 14.3568 27.1253 14.9518 26.8493 15.4976C26.5345 16.1196 26.3685 16.8047 26.3638 17.5ZM26.3638 17.5C26.3637 17.4897 26.3636 17.4794 26.3636 17.469V17.5309C26.3636 17.5206 26.3637 17.5103 26.3638 17.5Z" fill="#F3B3C4"/>
</g>
<path d="M54.728 29.752C54.232 29.752 53.984 29.52 53.984 29.056C53.984 28.992 53.992 28.728 54.008 28.264C54.024 27.8 54.04 27.208 54.056 26.488C54.072 25.768 54.088 24.992 54.104 24.16C54.136 23.328 54.152 22.512 54.152 21.712C53.272 22.912 52.288 23.976 51.2 24.904C50.112 25.832 49.008 26.624 47.888 27.28C46.768 27.92 45.704 28.432 44.696 28.816C44.6 28.784 44.528 28.72 44.48 28.624C44.448 28.544 44.456 28.464 44.504 28.384C45.608 27.76 46.688 26.928 47.744 25.888C48.816 24.848 49.792 23.688 50.672 22.408C51.568 21.112 52.272 19.784 52.784 18.424H51.32C50.968 18.424 50.648 18.432 50.36 18.448C50.072 18.448 49.832 18.456 49.64 18.472C49.672 19.496 49.688 20.376 49.688 21.112C49.704 21.832 49.712 22.24 49.712 22.336C49.712 22.624 49.504 22.848 49.088 23.008C48.688 23.168 48.208 23.248 47.648 23.248C47.216 23.248 47 23.048 47 22.648V21.712H45.176V24.256C45.176 24.528 44.968 24.752 44.552 24.928C44.136 25.088 43.656 25.168 43.112 25.168C42.664 25.168 42.44 24.96 42.44 24.544C42.44 24.448 42.448 24.12 42.464 23.56C42.48 23 42.504 22.312 42.536 21.496C42.568 20.664 42.592 19.792 42.608 18.88C42.624 17.952 42.632 17.08 42.632 16.264C42.632 14.52 42.608 13.208 42.56 12.328C42.528 11.432 42.472 10.816 42.392 10.48C42.36 10.384 42.376 10.304 42.44 10.24C42.488 10.192 42.576 10.184 42.704 10.216C43.04 10.296 43.48 10.44 44.024 10.648C44.568 10.84 45.04 11.016 45.44 11.176H46.664C46.824 11.176 46.952 11.12 47.048 11.008C47.096 10.944 47.16 10.848 47.24 10.72C47.32 10.576 47.392 10.464 47.456 10.384C47.52 10.272 47.6 10.216 47.696 10.216C47.728 10.216 47.76 10.224 47.792 10.24C47.84 10.24 47.888 10.248 47.936 10.264C48.112 10.328 48.336 10.424 48.608 10.552C48.88 10.68 49.16 10.816 49.448 10.96C49.736 11.104 49.976 11.232 50.168 11.344C50.312 11.408 50.384 11.528 50.384 11.704C50.384 11.896 50.28 12.048 50.072 12.16C49.976 12.208 49.904 12.256 49.856 12.304C49.68 12.464 49.592 12.704 49.592 13.024C49.592 13.776 49.592 14.552 49.592 15.352C49.608 16.136 49.624 16.896 49.64 17.632C49.864 17.648 50.12 17.664 50.408 17.68C50.712 17.696 51.016 17.704 51.32 17.704H54.152V13.696H52.376C52.376 13.696 52.256 13.696 52.016 13.696C51.776 13.696 51.48 13.704 51.128 13.72C50.776 13.736 50.44 13.76 50.12 13.792L49.928 12.856C50.536 12.92 51.088 12.96 51.584 12.976C52.096 12.976 52.352 12.976 52.352 12.976H54.152V10.096C54.152 9.728 54.144 9.392 54.128 9.088C54.112 8.784 54.064 8.56 53.984 8.416C53.952 8.32 53.936 8.256 53.936 8.224C53.936 8.064 54.032 7.984 54.224 7.984C54.448 7.984 54.76 8.008 55.16 8.056C55.576 8.104 55.984 8.16 56.384 8.224C56.784 8.272 57.096 8.328 57.32 8.392C57.448 8.408 57.528 8.464 57.56 8.56C57.592 8.64 57.608 8.728 57.608 8.824C57.592 9.048 57.464 9.176 57.224 9.208C56.904 9.256 56.744 9.424 56.744 9.712V12.976H58.328C58.488 12.976 58.608 12.968 58.688 12.952C58.768 12.936 58.84 12.872 58.904 12.76C58.984 12.632 59.12 12.448 59.312 12.208C59.52 11.952 59.664 11.768 59.744 11.656C59.84 11.528 59.944 11.464 60.056 11.464C60.136 11.464 60.224 11.488 60.32 11.536C60.528 11.632 60.768 11.776 61.04 11.968C61.328 12.16 61.592 12.36 61.832 12.568C62.088 12.776 62.28 12.952 62.408 13.096C62.488 13.176 62.528 13.272 62.528 13.384C62.528 13.592 62.44 13.696 62.264 13.696H56.744V17.704H59.504C59.648 17.704 59.76 17.696 59.84 17.68C59.936 17.648 60.016 17.576 60.08 17.464C60.16 17.336 60.304 17.136 60.512 16.864C60.736 16.576 60.888 16.376 60.968 16.264C61.064 16.136 61.176 16.072 61.304 16.072C61.368 16.072 61.448 16.096 61.544 16.144C61.752 16.24 61.992 16.392 62.264 16.6C62.552 16.808 62.824 17.024 63.08 17.248C63.352 17.472 63.552 17.664 63.68 17.824C63.76 17.904 63.8 18 63.8 18.112C63.8 18.32 63.712 18.424 63.536 18.424H56.936C57.224 19.24 57.648 20.008 58.208 20.728C58.784 21.448 59.44 22.112 60.176 22.72C60.928 23.312 61.696 23.832 62.48 24.28C63.264 24.728 64.016 25.08 64.736 25.336C64.08 25.64 63.504 26.056 63.008 26.584C62.528 27.096 62.192 27.592 62 28.072C61.248 27.512 60.512 26.784 59.792 25.888C59.088 24.976 58.464 23.96 57.92 22.84C57.392 21.704 57 20.536 56.744 19.336V21.28C56.744 22.16 56.752 23.024 56.768 23.872C56.784 24.704 56.792 25.472 56.792 26.176C56.808 26.88 56.824 27.464 56.84 27.928C56.856 28.376 56.864 28.648 56.864 28.744C56.864 29.048 56.656 29.288 56.24 29.464C55.84 29.656 55.336 29.752 54.728 29.752ZM47 11.896H45.176V20.992H47V11.896ZM74.0023 29.344C73.4583 29.264 73.0583 29.112 72.8023 28.888C72.5623 28.68 72.4423 28.344 72.4423 27.88V16.456C72.4423 14.856 72.3463 13.888 72.1543 13.552C72.0903 13.44 72.0823 13.344 72.1303 13.264C72.1783 13.184 72.2663 13.144 72.3943 13.144C72.5703 13.144 72.8183 13.168 73.1383 13.216C73.4583 13.248 73.8023 13.288 74.1703 13.336C74.5543 13.384 74.9063 13.432 75.2263 13.48C75.5623 13.528 75.8103 13.576 75.9703 13.624C76.0983 13.64 76.1783 13.688 76.2103 13.768C76.2423 13.848 76.2583 13.944 76.2583 14.056C76.2423 14.184 76.1943 14.272 76.1143 14.32C76.0503 14.368 75.9623 14.4 75.8503 14.416C75.6103 14.448 75.4503 14.52 75.3703 14.632C75.2903 14.744 75.2503 14.92 75.2503 15.16V26.128C75.2503 26.336 75.3063 26.48 75.4183 26.56C75.5303 26.64 75.7143 26.688 75.9703 26.704C76.3543 26.704 76.8263 26.704 77.3863 26.704C77.9623 26.688 78.5303 26.656 79.0903 26.608C79.6503 26.56 80.0983 26.496 80.4343 26.416C80.7063 26.336 80.9063 26.24 81.0343 26.128C81.1783 26.016 81.3223 25.808 81.4663 25.504C81.5463 25.328 81.6423 25.064 81.7543 24.712C81.8663 24.36 81.9783 23.992 82.0903 23.608C82.2183 23.224 82.3223 22.872 82.4023 22.552C82.4983 22.216 82.5623 21.984 82.5943 21.856C82.6743 21.808 82.7463 21.784 82.8103 21.784C82.9383 21.784 83.0263 21.84 83.0743 21.952C83.0583 22.08 83.0343 22.312 83.0023 22.648C82.9863 22.984 82.9623 23.344 82.9303 23.728C82.8983 24.112 82.8663 24.472 82.8343 24.808C82.8183 25.144 82.8103 25.376 82.8103 25.504V25.6C82.8103 25.824 82.9463 25.992 83.2183 26.104C83.9063 26.392 84.2503 26.856 84.2503 27.496C84.2503 27.848 84.1143 28.16 83.8423 28.432C83.5703 28.72 83.1303 28.928 82.5223 29.056C82.1383 29.136 81.6263 29.208 80.9863 29.272C80.3623 29.336 79.6823 29.384 78.9463 29.416C78.2103 29.448 77.4903 29.464 76.7863 29.464C76.2263 29.464 75.6983 29.448 75.2023 29.416C74.7223 29.4 74.3223 29.376 74.0023 29.344ZM67.6903 25.048C67.1143 25.048 66.6743 24.88 66.3703 24.544C66.0663 24.208 65.9143 23.832 65.9143 23.416C65.9143 23.128 65.9943 22.848 66.1543 22.576C66.3143 22.288 66.5463 22.048 66.8503 21.856C67.9543 21.168 68.7063 20.28 69.1063 19.192C69.5063 18.104 69.6903 16.912 69.6583 15.616C69.7383 15.536 69.8263 15.496 69.9223 15.496C70.0023 15.496 70.0743 15.52 70.1383 15.568C70.3943 16.288 70.5783 17 70.6903 17.704C70.8023 18.408 70.8583 19.088 70.8583 19.744C70.8583 20.752 70.7303 21.656 70.4743 22.456C70.2183 23.256 69.8503 23.888 69.3703 24.352C68.9063 24.816 68.3463 25.048 67.6903 25.048ZM86.3863 23.056C86.3223 23.072 86.2583 23.088 86.1943 23.104C86.1463 23.104 86.0903 23.104 86.0263 23.104C85.7543 23.104 85.4983 23.016 85.2583 22.84C85.0183 22.648 84.8583 22.352 84.7783 21.952C84.6183 21.184 84.3783 20.4 84.0583 19.6C83.7543 18.8 83.3703 18.04 82.9063 17.32C82.4423 16.584 81.8903 15.944 81.2503 15.4V15.352C81.2503 15.144 81.3463 15.024 81.5383 14.992C82.6263 15.344 83.6423 15.816 84.5863 16.408C85.5303 16.984 86.2983 17.672 86.8903 18.472C87.4823 19.272 87.7783 20.16 87.7783 21.136C87.7783 21.68 87.6423 22.112 87.3703 22.432C87.1143 22.736 86.7863 22.944 86.3863 23.056ZM79.0663 13.6C78.8583 13.68 78.6663 13.72 78.4903 13.72C78.2503 13.72 78.0263 13.664 77.8183 13.552C77.6103 13.424 77.4423 13.232 77.3143 12.976C76.8983 12.032 76.3623 11.176 75.7063 10.408C75.0503 9.624 74.1783 9.008 73.0903 8.56C73.0583 8.496 73.0423 8.44 73.0423 8.392C73.0423 8.232 73.1063 8.128 73.2343 8.08C74.3063 8.08 75.3143 8.2 76.2583 8.44C77.2183 8.68 78.0263 9.032 78.6823 9.496C79.3543 9.96 79.7783 10.536 79.9543 11.224C79.9863 11.368 80.0103 11.504 80.0263 11.632C80.0583 11.744 80.0743 11.864 80.0743 11.992C80.0743 12.392 79.9783 12.728 79.7863 13C79.5943 13.272 79.3543 13.472 79.0663 13.6Z" fill="white"/>
<defs>
<clipPath id="clip0_9_147">
<rect width="29" height="32" fill="white" transform="translate(0 1.5)"/>
</clipPath>
</defs>
</svg>
